<svg width="312" height="64" viewBox="0 0 312 64" fill="none" xmlns="http://www.w3.org/2000/svg">
<path d="M32.8386 47.0284C32.7762 46.9409 32.7151 46.8525 32.6555 46.763C30.6083 43.6923 29.824 40.2862 29.824 37.04C29.824 34.6399 30.2545 32.0884 31.3838 29.6525C30.6568 27.654 30.5593 25.4099 31.2481 23.2287C32.0331 20.7431 33.2849 18.4826 34.9461 16.5019L34.9651 16.4793C36.9508 14.1258 39.3994 12.452 42.0046 11.3198C45.0302 9.98546 48.2188 9.52002 51.248 9.52002C54.3535 9.52002 57.5655 10.0327 60.5662 11.3617C60.8313 11.2204 61.1035 11.0907 61.3821 10.9733C62.2405 6.32275 66.3167 2.80002 71.2156 2.80002H77.2636C81.9781 2.80002 85.9307 6.06254 86.9866 10.453C87.7189 10.2823 88.482 10.192 89.2662 10.192H95.2182C95.8918 10.192 96.5498 10.2586 97.186 10.3856C98.8439 9.95634 100.468 9.80803 101.938 9.80803C104.037 9.80803 106.422 10.1011 108.774 11.0374C111.234 10.0619 113.714 9.80803 115.762 9.80803C118.686 9.80803 121.624 10.4474 124.364 11.8973C125.517 12.4881 126.566 13.195 127.511 13.998C128.487 13.2643 129.534 12.6121 130.647 12.0462C134.097 10.2915 137.808 9.52002 141.563 9.52002C145.318 9.52002 149.029 10.2915 152.479 12.0462C153.475 12.5526 154.418 13.1281 155.305 13.7693C155.477 13.6336 155.653 13.5003 155.833 13.3694C159.738 10.4962 164.274 9.52002 168.554 9.52002C170.627 9.52002 172.735 9.75406 174.798 10.3069C174.848 4.82696 179.306 0.400024 184.797 0.400024H190.845C196.368 0.400024 200.845 4.87718 200.845 10.4V10.695C203.267 9.88213 205.781 9.52002 208.299 9.52002C212.166 9.52002 216.04 10.4061 219.551 12.5354C220.423 13.0555 221.242 13.6309 222.01 14.2573C222.894 13.5473 223.845 12.9062 224.861 12.3397C228.358 10.3562 232.176 9.52002 236.003 9.52002C239.714 9.52002 243.433 10.3365 246.83 12.2854C248.522 10.9732 250.647 10.192 252.954 10.192H258.906C259.586 10.192 260.25 10.2599 260.891 10.3891C263.125 9.70981 265.345 9.52002 267.258 9.52002C270.91 9.52002 274.419 10.4512 277.593 12.304C280.982 14.2479 283.533 17.0485 285.307 20.3103C287.27 23.9212 288.01 27.8587 288.01 31.712V32.48C288.01 36.3333 287.27 40.2708 285.307 43.8817C283.534 47.1407 281.001 49.932 277.656 51.8994C277.614 51.9242 277.571 51.9487 277.529 51.9729C274.854 53.4939 271.958 54.3682 268.952 54.6056C268.447 59.6562 264.185 63.6 259.002 63.6H252.954C247.485 63.6 243.042 59.2109 242.955 53.7634C240.647 54.4377 238.303 54.672 236.099 54.672C232.299 54.672 228.518 53.8644 225.033 51.9689C224.971 51.9354 224.91 51.9012 224.849 51.8665C223.918 51.3342 223.038 50.7409 222.214 50.09C220.954 51.0982 219.608 51.9263 218.244 52.6083C218.189 52.6356 218.134 52.6625 218.079 52.6888C214.903 54.2043 211.51 54.672 208.395 54.672C204.596 54.672 200.815 53.8644 197.33 51.9689C197.268 51.9354 197.207 51.9012 197.146 51.8665L197.073 51.8246C195.365 53.1862 193.2 54 190.845 54H184.797C182.903 54 181.131 53.4732 179.621 52.558C176.364 54.119 172.849 54.672 169.514 54.672C164.996 54.672 160.339 53.6893 156.273 50.9352C155.985 50.7399 155.704 50.5384 155.431 50.331C154.508 51.0091 153.523 51.6154 152.479 52.1459C149.029 53.9005 145.318 54.672 141.563 54.672C137.808 54.672 134.097 53.9005 130.647 52.1459C130.425 52.0334 130.207 51.9175 129.991 51.7983C128.277 53.1757 126.1 54 123.73 54H117.682C116.229 54 114.848 53.69 113.602 53.1326C112.356 53.69 110.975 54 109.522 54H103.474C102.021 54 100.64 53.69 99.3942 53.1326C98.1483 53.69 96.7675 54 95.3142 54H89.2662C88.2117 54 87.1953 53.8368 86.2409 53.5342C85.2865 53.8368 84.2701 54 83.2156 54H76.4956C74.2519 54 71.9671 53.5635 69.8293 52.5789C68.3269 53.4812 66.5681 54 64.688 54H60.656C59.2206 54 57.6845 53.8173 56.1449 53.3571C53.5544 54.4193 50.9129 54.672 48.752 54.672C45.9161 54.672 43.0246 54.1874 40.2528 52.9995C37.888 52.199 34.3247 48.6852 32.8386 47.0284Z" fill="url(#paint0_linear_30_18)"/>
<path d="M48.752 44.672C47.056 44.672 45.536 44.384 44.192 43.808C42.848 43.2 41.776 42.336 40.976 41.216C40.208 40.064 39.824 38.672 39.824 37.04C39.824 35.408 40.208 34.048 40.976 32.96C41.776 31.84 42.864 31.008 44.24 30.464C45.648 29.888 47.248 29.6 49.04 29.6H55.568V28.256C55.568 27.136 55.216 26.224 54.512 25.52C53.808 24.784 52.688 24.416 51.152 24.416C49.648 24.416 48.528 24.768 47.792 25.472C47.056 26.144 46.576 27.024 46.352 28.112L40.784 26.24C41.168 25.024 41.776 23.92 42.608 22.928C43.472 21.904 44.608 21.088 46.016 20.48C47.456 19.84 49.2 19.52 51.248 19.52C54.384 19.52 56.864 20.304 58.688 21.872C60.512 23.44 61.424 25.712 61.424 28.688V37.568C61.424 38.528 61.872 39.008 62.768 39.008H64.688V44H60.656C59.472 44 58.496 43.712 57.728 43.136C56.96 42.56 56.576 41.792 56.576 40.832V40.784H55.664C55.536 41.168 55.248 41.68 54.8 42.32C54.352 42.928 53.648 43.472 52.688 43.952C51.728 44.432 50.416 44.672 48.752 44.672ZM49.808 39.776C51.504 39.776 52.88 39.312 53.936 38.384C55.024 37.424 55.568 36.16 55.568 34.592V34.112H49.472C48.352 34.112 47.472 34.352 46.832 34.832C46.192 35.312 45.872 35.984 45.872 36.848C45.872 37.712 46.208 38.416 46.88 38.96C47.552 39.504 48.528 39.776 49.808 39.776Z" fill="white" fill-opacity="0.5"/>
<path d="M76.4956 44C74.9276 44 73.6476 43.52 72.6556 42.56C71.6956 41.568 71.2156 40.256 71.2156 38.624V25.184H65.2636V20.192H71.2156V12.8H77.2636V20.192H83.7916V25.184H77.2636V37.568C77.2636 38.528 77.7116 39.008 78.6076 39.008H83.2156V44H76.4956Z" fill="white" fill-opacity="0.5"/>
<path d="M89.2662 44V20.192H95.2182V22.784H96.0822C96.4982 21.984 97.1862 21.296 98.1462 20.72C99.1062 20.112 100.37 19.808 101.938 19.808C103.634 19.808 104.994 20.144 106.018 20.816C107.042 21.456 107.826 22.304 108.37 23.36H109.234C109.778 22.336 110.546 21.488 111.538 20.816C112.53 20.144 113.938 19.808 115.762 19.808C117.234 19.808 118.562 20.128 119.746 20.768C120.962 21.376 121.922 22.32 122.626 23.6C123.362 24.848 123.73 26.432 123.73 28.352V44H117.682V28.784C117.682 27.472 117.346 26.496 116.674 25.856C116.002 25.184 115.058 24.848 113.842 24.848C112.466 24.848 111.394 25.296 110.626 26.192C109.89 27.056 109.522 28.304 109.522 29.936V44H103.474V28.784C103.474 27.472 103.138 26.496 102.466 25.856C101.794 25.184 100.85 24.848 99.6342 24.848C98.2582 24.848 97.1862 25.296 96.4182 26.192C95.6822 27.056 95.3142 28.304 95.3142 29.936V44H89.2662Z" fill="white" fill-opacity="0.5"/>
<path d="M141.563 44.672C139.195 44.672 137.067 44.192 135.179 43.232C133.291 42.272 131.803 40.88 130.715 39.056C129.627 37.232 129.083 35.04 129.083 32.48V31.712C129.083 29.152 129.627 26.96 130.715 25.136C131.803 23.312 133.291 21.92 135.179 20.96C137.067 20 139.195 19.52 141.563 19.52C143.931 19.52 146.059 20 147.947 20.96C149.835 21.92 151.323 23.312 152.411 25.136C153.499 26.96 154.043 29.152 154.043 31.712V32.48C154.043 35.04 153.499 37.232 152.411 39.056C151.323 40.88 149.835 42.272 147.947 43.232C146.059 44.192 143.931 44.672 141.563 44.672ZM141.563 39.296C143.419 39.296 144.955 38.704 146.171 37.52C147.387 36.304 147.995 34.576 147.995 32.336V31.856C147.995 29.616 147.387 27.904 146.171 26.72C144.987 25.504 143.451 24.896 141.563 24.896C139.707 24.896 138.171 25.504 136.955 26.72C135.739 27.904 135.131 29.616 135.131 31.856V32.336C135.131 34.576 135.739 36.304 136.955 37.52C138.171 38.704 139.707 39.296 141.563 39.296Z" fill="white" fill-opacity="0.5"/>
<path d="M169.514 44.672C166.41 44.672 163.866 44 161.882 42.656C159.898 41.312 158.698 39.392 158.282 36.896L163.85 35.456C164.074 36.576 164.442 37.456 164.954 38.096C165.498 38.736 166.154 39.2 166.922 39.488C167.722 39.744 168.586 39.872 169.514 39.872C170.922 39.872 171.962 39.632 172.634 39.152C173.306 38.64 173.642 38.016 173.642 37.28C173.642 36.544 173.322 35.984 172.682 35.6C172.042 35.184 171.018 34.848 169.61 34.592L168.266 34.352C166.602 34.032 165.082 33.6 163.706 33.056C162.33 32.48 161.226 31.696 160.394 30.704C159.562 29.712 159.146 28.432 159.146 26.864C159.146 24.496 160.01 22.688 161.738 21.44C163.466 20.16 165.738 19.52 168.554 19.52C171.21 19.52 173.418 20.112 175.178 21.296C176.938 22.48 178.09 24.032 178.634 25.952L173.018 27.68C172.762 26.464 172.234 25.6 171.434 25.088C170.666 24.576 169.706 24.32 168.554 24.32C167.402 24.32 166.522 24.528 165.914 24.944C165.306 25.328 165.002 25.872 165.002 26.576C165.002 27.344 165.322 27.92 165.962 28.304C166.602 28.656 167.466 28.928 168.554 29.12L169.898 29.36C171.69 29.68 173.306 30.112 174.746 30.656C176.218 31.168 177.37 31.92 178.202 32.912C179.066 33.872 179.498 35.184 179.498 36.848C179.498 39.344 178.586 41.28 176.762 42.656C174.97 44 172.554 44.672 169.514 44.672Z" fill="white" fill-opacity="0.5"/>
<path d="M184.797 44V10.4H190.845V44H184.797Z" fill="white" fill-opacity="0.5"/>
<path d="M208.395 44.672C206.027 44.672 203.931 44.176 202.107 43.184C200.315 42.16 198.907 40.736 197.883 38.912C196.891 37.056 196.395 34.88 196.395 32.384V31.808C196.395 29.312 196.891 27.152 197.883 25.328C198.875 23.472 200.267 22.048 202.059 21.056C203.851 20.032 205.931 19.52 208.299 19.52C210.635 19.52 212.667 20.048 214.395 21.104C216.123 22.128 217.467 23.568 218.427 25.424C219.387 27.248 219.867 29.376 219.867 31.808V33.872H202.539C202.603 35.504 203.211 36.832 204.363 37.856C205.515 38.88 206.923 39.392 208.587 39.392C210.283 39.392 211.531 39.024 212.331 38.288C213.131 37.552 213.739 36.736 214.155 35.84L219.099 38.432C218.651 39.264 217.995 40.176 217.131 41.168C216.299 42.128 215.179 42.96 213.771 43.664C212.363 44.336 210.571 44.672 208.395 44.672ZM202.587 29.36H213.723C213.595 27.984 213.035 26.88 212.043 26.048C211.083 25.216 209.819 24.8 208.251 24.8C206.619 24.8 205.323 25.216 204.363 26.048C203.403 26.88 202.811 27.984 202.587 29.36Z" fill="white" fill-opacity="0.5"/>
<path d="M236.099 44.672C233.731 44.672 231.635 44.176 229.811 43.184C228.019 42.16 226.611 40.736 225.587 38.912C224.595 37.056 224.099 34.88 224.099 32.384V31.808C224.099 29.312 224.595 27.152 225.587 25.328C226.579 23.472 227.971 22.048 229.763 21.056C231.555 20.032 233.635 19.52 236.003 19.52C238.339 19.52 240.371 20.048 242.099 21.104C243.827 22.128 245.171 23.568 246.131 25.424C247.091 27.248 247.571 29.376 247.571 31.808V33.872H230.243C230.307 35.504 230.915 36.832 232.067 37.856C233.219 38.88 234.627 39.392 236.291 39.392C237.987 39.392 239.235 39.024 240.035 38.288C240.835 37.552 241.443 36.736 241.859 35.84L246.803 38.432C246.355 39.264 245.699 40.176 244.835 41.168C244.003 42.128 242.883 42.96 241.475 43.664C240.067 44.336 238.275 44.672 236.099 44.672ZM230.291 29.36H241.427C241.299 27.984 240.739 26.88 239.747 26.048C238.787 25.216 237.523 24.8 235.955 24.8C234.323 24.8 233.027 25.216 232.067 26.048C231.107 26.88 230.515 27.984 230.291 29.36Z" fill="white" fill-opacity="0.5"/>
<path d="M252.954 53.6V20.192H258.906V23.072H259.77C260.314 22.144 261.162 21.328 262.314 20.624C263.466 19.888 265.114 19.52 267.258 19.52C269.178 19.52 270.954 20 272.586 20.96C274.218 21.888 275.53 23.264 276.522 25.088C277.514 26.912 278.01 29.12 278.01 31.712V32.48C278.01 35.072 277.514 37.28 276.522 39.104C275.53 40.928 274.218 42.32 272.586 43.28C270.954 44.208 269.178 44.672 267.258 44.672C265.818 44.672 264.602 44.496 263.61 44.144C262.65 43.824 261.866 43.408 261.258 42.896C260.682 42.352 260.218 41.808 259.866 41.264H259.002V53.6H252.954ZM265.434 39.392C267.322 39.392 268.874 38.8 270.09 37.616C271.338 36.4 271.962 34.64 271.962 32.336V31.856C271.962 29.552 271.338 27.808 270.09 26.624C268.842 25.408 267.29 24.8 265.434 24.8C263.578 24.8 262.026 25.408 260.778 26.624C259.53 27.808 258.906 29.552 258.906 31.856V32.336C258.906 34.64 259.53 36.4 260.778 37.616C262.026 38.8 263.578 39.392 265.434 39.392Z" fill="white" fill-opacity="0.5"/>
<path d="M20.9999 44.79C20.8426 46.4922 20.2038 48.1144 19.1581 49.4668C18.1125 50.8192 16.7034 51.8458 15.0956 52.4265C13.4878 53.0073 11.7479 53.1181 10.0794 52.7461C8.41092 52.3741 6.8829 51.5345 5.67413 50.3258C4.46536 49.117 3.62584 47.589 3.25381 45.9205C2.88178 44.252 2.99262 42.5121 3.57336 40.9043C4.15411 39.2965 5.18073 37.8874 6.53311 36.8418C7.8855 35.7961 9.5077 35.1573 11.2099 35C10.2133 36.3483 9.73375 38.0094 9.85843 39.6814C9.98312 41.3534 10.7038 42.9251 11.8893 44.1106C13.0748 45.2961 14.6465 46.0168 16.3185 46.1415C17.9905 46.2662 19.6516 45.7866 20.9999 44.79Z" fill="url(#paint1_linear_30_18)"/>
<path d="M309 12.79C308.843 14.4922 308.204 16.1144 307.158 17.4668C306.113 18.8192 304.703 19.8458 303.096 20.4265C301.488 21.0073 299.748 21.1181 298.079 20.7461C296.411 20.3741 294.883 19.5345 293.674 18.3258C292.465 17.117 291.626 15.589 291.254 13.9205C290.882 12.252 290.993 10.5121 291.573 8.9043C292.154 7.29651 293.181 5.88737 294.533 4.84175C295.885 3.79614 297.508 3.15731 299.21 3C298.213 4.34827 297.734 6.00945 297.858 7.68141C297.983 9.35338 298.704 10.9251 299.889 12.1106C301.075 13.2961 302.647 14.0168 304.318 14.1415C305.99 14.2662 307.652 13.7866 309 12.79Z" fill="url(#paint2_linear_30_18)"/>
<defs>
<linearGradient id="paint0_linear_30_18" x1="298" y1="-2.99998" x2="-152" y2="67.0001" gradientUnits="userSpaceOnUse">
<stop stop-color="white" stop-opacity="0.5"/>
<stop offset="0.0001" stop-color="white" stop-opacity="0.5"/>
<stop offset="1" stop-color="white" stop-opacity="0"/>
</linearGradient>
<linearGradient id="paint1_linear_30_18" x1="21.6949" y1="34.0337" x2="-10.3224" y2="35.2528" gradientUnits="userSpaceOnUse">
<stop stop-color="white" stop-opacity="0.5"/>
<stop offset="0.0001" stop-color="white" stop-opacity="0.5"/>
<stop offset="1" stop-color="white" stop-opacity="0"/>
</linearGradient>
<linearGradient id="paint2_linear_30_18" x1="309.695" y1="2.0337" x2="277.678" y2="3.25284" gradientUnits="userSpaceOnUse">
<stop stop-color="white" stop-opacity="0.5"/>
<stop offset="0.0001" stop-color="white" stop-opacity="0.5"/>
<stop offset="1" stop-color="white" stop-opacity="0"/>
</linearGradient>
</defs>
</svg>
